<svg xmlns="http://www.w3.org/2000/svg" width="100" height="40" viewBox="100 70 100 40">
  <path fill="#9EABBD" d="M129.007 106.046c2.534 0 3.854-1.667 3.854-4.063V89.684h5.377v12.506c-.101 5.522-4.364 7.712-9.231 7.712s-9.13-2.19-9.231-7.712V89.684h5.376v12.293c0 2.402 1.321 4.069 3.855 4.069zm-23.021 3.437h5.371V93.54h5.986v-3.856H100v3.856h5.986v15.943zm12.778-29.38c-1.321.42-2.635.104-2.635-1.666 0-2.707 6.187-5 7.099-7.397.201-.626.201-1.04 0-1.04-.202 0 0 .31-.509.73-2.534 2.603-6.898 2.603-10.244 4.167-2.131 1.034-8.52 4.057-7.099 10.936.101.311.302 1.46.408 1.46.303-.103.303-.73.303-1.563 0-4.063 4.665-5.207 6.187-7.92.201-.31.509-.729.61-.522v.522c-.509 2.19-2.736 3.65-2.132 5.207.812 2.086 3.245.523 3.956-.833.201-.31.302-.626.408-.523.101 0 .101.42 0 .834-.408 2.396-.912 3.649-2.635 5-.509.419-1.421.522-1.32.833 0 .103.408.103.71 0 4.464-.311 8.213-5.73 9.231-9.27.1-.207.1-.523 0-.627-.101-.103-.302.104-.509.311-.408.632-1.119 1.149-1.829 1.361zm45.639 21.15c0-2.19 1.32-4.063 3.345-4.063 2.434 0 3.447 1.77 3.447 4.063h-6.792zm9.432 1.873v-1.252c0-3.857-2.131-6.46-5.88-6.46-4.257 0-6.187 3.333-6.187 7.396 0 4.064 1.723 7.19 5.986 7.19 3.244 0 5.577-1.563 5.985-4.69h-2.746c-.302 1.978-1.32 2.811-3.245 2.811-2.635 0-3.446-2.397-3.446-4.897l9.533-.098zm3.144-13.442h2.534v19.799h-2.534V89.684zm10.445 19.799V97.5h3.144v-1.77h-3.144v-2.19c0-1.563.71-1.873 2.232-1.873.408 0 .811.103 1.32.103v-2.189c-.61-.104-1.219-.311-1.824-.311-2.433 0-4.157 1.253-4.157 3.856v2.604h-2.635v1.77h2.635v11.983h2.429zm4.565-13.753v1.77h2.333v8.856c0 1.874 0 3.541 3.753 3.541.61 0 1.114-.104 1.724-.207v-1.978c-.409.104-.912.207-1.321.207-.912 0-1.622-.522-1.622-1.459v-8.857H200v-1.77h-3.144v-3.752l-2.534.729v2.92h-2.333zm-48.375 13.753h6.59c8.213 0 9.13-7.19 9.13-9.897s-.912-9.896-9.13-9.896h-6.59v19.793zm2.635-17.402h3.955c4.464 0 6.288 3.436 6.288 7.5 0 4.063-1.824 7.505-6.288 7.505h-3.955V92.081z"/>
</svg>
