<svg xmlns="http://www.w3.org/2000/svg" width="108" height="38" viewBox="10 10 108 38">
  <path fill="#9EABBD" d="M99.082 34.7c-3.103 0-5.706-2.5-5.706-5.7 0-3.1 2.503-5.7 5.706-5.7 3.103 0 5.705 2.5 5.705 5.7 0 3.1-2.502 5.7-5.705 5.7zm0-24.7c-9.609 0-17.216 6.6-18.717 15.7v-11c0-2.8-1.202-4-4.004-4h-9.509V25l-8.207-11.1c-1.802-2.4-3.504-3.3-6.506-3.3H10v9.8c0 2.8 1.201 4 4.004 4h6.305v18.9c0 2.8 1.202 4 4.004 4h10.31v-23h8.708v18.9c0 2.8 1.201 4 4.003 4h9.509V33l8.107 11.1c1.802 2.4 3.504 3.2 6.506 3.2h8.808V32.4C81.766 41.6 89.173 48 98.982 48c10.81 0 19.017-8.2 19.017-19 .1-11-7.907-19-18.917-19z"/>
</svg>
